<svg id="visual" viewBox="0 0 960 540" width="960" height="540" xmlns="http://www.w3.org/2000/svg" xmlns:xlink="http://www.w3.org/1999/xlink" version="1.1"><path d="M0 244L32 222.3C64 200.7 128 157.3 192 142C256 126.7 320 139.3 384 159.2C448 179 512 206 576 212.3C640 218.7 704 204.3 768 207C832 209.7 896 229.3 928 239.2L960 249L960 0L928 0C896 0 832 0 768 0C704 0 640 0 576 0C512 0 448 0 384 0C320 0 256 0 192 0C128 0 64 0 32 0L0 0Z" fill="#6490ec"></path><path d="M0 287L32 266.3C64 245.7 128 204.3 192 187.3C256 170.3 320 177.7 384 206.5C448 235.3 512 285.7 576 290.2C640 294.7 704 253.3 768 243.3C832 233.3 896 254.7 928 265.3L960 276L960 247L928 237.2C896 227.3 832 207.7 768 205C704 202.3 640 216.7 576 210.3C512 204 448 177 384 157.2C320 137.3 256 124.7 192 140C128 155.3 64 198.7 32 220.3L0 242Z" fill="#447ae6"></path><path d="M0 330L32 318.3C64 306.7 128 283.3 192 276.2C256 269 320 278 384 294.2C448 310.3 512 333.7 576 325.7C640 317.7 704 278.3 768 277.5C832 276.7 896 314.3 928 333.2L960 352L960 274L928 263.3C896 252.7 832 231.3 768 241.3C704 251.3 640 292.7 576 288.2C512 283.7 448 233.3 384 204.5C320 175.7 256 168.3 192 185.3C128 202.3 64 243.7 32 264.3L0 285Z" fill="#1763de"></path><path d="M0 422L32 421.2C64 420.3 128 418.7 192 425.8C256 433 320 449 384 459.8C448 470.7 512 476.3 576 471.8C640 467.3 704 452.7 768 445.3C832 438 896 438 928 438L960 438L960 350L928 331.2C896 312.3 832 274.7 768 275.5C704 276.3 640 315.7 576 323.7C512 331.7 448 308.3 384 292.2C320 276 256 267 192 274.2C128 281.3 64 304.7 32 316.3L0 328Z" fill="#0b56c0"></path><path d="M0 541L32 541C64 541 128 541 192 541C256 541 320 541 384 541C448 541 512 541 576 541C640 541 704 541 768 541C832 541 896 541 928 541L960 541L960 436L928 436C896 436 832 436 768 443.3C704 450.7 640 465.3 576 469.8C512 474.3 448 468.7 384 457.8C320 447 256 431 192 423.8C128 416.7 64 418.3 32 419.2L0 420Z" fill="#0449a3"></path></svg>